# Blender v2.80 (sub 75) OBJ File: 'Minecraft model.blend'
# www.blender.org
mtllib bookshelf_on_model.mtl
o bookshelf_on_Cube
v 1.000000 1.000000 -1.000000
v 1.000000 -1.000000 -1.000000
v 1.000000 1.000000 1.000000
v 1.000000 -1.000000 1.000000
v -1.000000 1.000000 -1.000000
v -1.000000 -1.000000 -1.000000
v -1.000000 1.000000 1.000000
v -1.000000 -1.000000 1.000000
v -0.250000 -1.000000 -1.000000
v -0.500000 -1.000000 -1.000000
v -0.250000 1.000000 1.000000
v -0.500000 1.000000 1.000000
v -0.500000 -1.000000 1.000000
v -0.250000 -1.000000 1.000000
v -0.500000 1.000000 -1.000000
v -0.250000 1.000000 -1.000000
v 1.000000 0.125000 -1.000000
v -1.000000 0.125000 1.000000
v 1.000000 0.125000 1.000000
v -1.000000 0.125000 -1.000000
v -0.500000 0.125000 -1.000000
v -0.250000 0.125000 -1.000000
v 2.501230 0.360083 0.927558
v -0.500000 0.125000 1.000000
v 1.000000 0.812500 -1.000000
v -1.000000 0.812500 1.000000
v 1.000000 0.812500 1.000000
v -1.000000 0.812500 -1.000000
v -0.500000 0.812500 -1.000000
v -0.250000 0.812500 -1.000000
v -0.500000 0.812500 1.000000
v -0.250000 0.690950 1.265189
v -0.250000 0.125000 1.000000
v -0.500000 0.690950 1.265189
v -0.250000 0.812500 1.000000
vt 0.999900 0.453044
vt 0.999900 0.499900
vt 0.500100 0.499900
vt 0.500100 0.453044
vt 0.186996 0.656313
vt 0.124508 0.656104
vt 0.124508 0.499950
vt 0.186996 0.500158
vt 0.999950 0.453109
vt 0.999950 0.499975
vt 0.500050 0.499975
vt 0.500050 0.453109
vt 0.625050 0.046956
vt 0.625050 0.000100
vt 0.687525 0.000100
vt 0.687525 0.046956
vt 0.500100 0.046956
vt 0.500100 0.000100
vt 0.999900 0.500100
vt 0.999900 0.625050
vt 0.500100 0.625050
vt 0.500100 0.500100
vt 0.999900 0.687525
vt 0.500100 0.687525
vt 0.999900 0.999900
vt 0.500100 0.999900
vt 0.999900 0.000100
vt 0.999900 0.046956
vt 0.499950 0.453084
vt 0.499950 0.499950
vt 0.187512 0.499950
vt 0.187512 0.453084
vt 0.125025 0.499950
vt 0.125025 0.453084
vt 0.500100 0.999900
vt 0.500100 0.687525
vt 0.999900 0.687525
vt 0.999900 0.999900
vt 0.500100 0.625050
vt 0.999900 0.625050
vt 0.500100 0.500100
vt 0.999900 0.500100
vt 0.000050 0.281244
vt 0.125025 0.281244
vt 0.000050 0.453084
vt 0.260123 0.656313
vt 0.187512 0.000050
vt 0.187512 0.281244
vt 0.125025 0.000050
vt 0.499950 0.281244
vt 0.999900 0.218763
vt 0.687525 0.218763
vt 0.625050 0.499900
vt 0.625050 0.218763
vt 0.687525 0.499900
vt 0.999900 0.499900
vt 0.500100 0.499900
vt 0.500100 0.218763
vt 0.500050 0.281269
vt 0.999950 0.281269
vt 0.000050 0.000050
vt 0.999950 0.000075
vt 0.500050 0.000075
vt 0.999900 0.281237
vt 0.500100 0.281237
vt 0.186996 0.729197
vt 0.124508 0.729197
vt 0.999900 0.000100
vt 0.500100 0.000100
vt 0.000050 0.499950
vt 0.051897 0.656104
vt 0.499950 0.000050
vn -1.0000 0.0000 0.0000
vn 0.0000 0.4243 -0.9055
vn 1.0000 0.0000 0.0000
vn 0.0000 0.0000 -1.0000
vn 0.0000 -1.0000 0.0000
vn 0.0000 0.0000 1.0000
vn 0.0000 1.0000 0.0000
vn 0.0000 -0.9091 -0.4167
usemtl Material
s off
f 26/1/1 7/2/1 5/3/1 28/4/1
f 34/5/2 32/6/2 33/7/2 24/8/2
f 25/9/3 1/10/3 3/11/3 27/12/3
f 29/13/4 15/14/4 16/15/4 30/16/4
f 28/17/4 5/18/4 15/14/4 29/13/4
f 6/19/5 10/20/5 13/21/5 8/22/5
f 9/23/5 14/24/5 13/21/5 10/20/5
f 9/23/5 2/25/5 4/26/5 14/24/5
f 30/16/4 16/15/4 1/27/4 25/28/4
f 27/29/6 3/30/6 11/31/6 35/32/6
f 35/32/6 11/31/6 12/33/6 31/34/6
f 1/35/7 16/36/7 11/37/7 3/38/7
f 15/39/7 12/40/7 11/37/7 16/36/7
f 5/41/7 7/42/7 12/40/7 15/39/7
f 18/43/6 24/44/6 31/34/6 26/45/6
f 24/8/3 31/46/3 34/5/3
f 14/47/6 33/48/6 24/44/6 13/49/6
f 33/48/6 19/50/6 27/29/6 35/32/6
f 17/51/4 22/52/4 30/16/4 25/28/4
f 10/53/4 21/54/4 22/52/4 9/55/4
f 9/55/4 22/52/4 17/51/4 2/56/4
f 6/57/4 20/58/4 21/54/4 10/53/4
f 21/54/4 20/58/4 28/17/4 29/13/4
f 22/52/4 21/54/4 29/13/4 30/16/4
f 27/12/3 19/59/3 17/60/3 25/9/3
f 13/49/6 24/44/6 18/43/6 8/61/6
f 2/62/3 17/60/3 19/59/3 4/63/3
f 18/64/1 26/1/1 28/4/1 20/65/1
f 34/5/8 31/66/8 35/67/8 32/6/8
f 8/68/1 18/64/1 20/65/1 6/69/1
f 31/34/6 12/33/6 7/70/6 26/45/6
f 35/71/1 33/7/1 32/6/1
f 4/72/6 19/50/6 33/48/6 14/47/6
